<svg xmlns="http://www.w3.org/2000/svg" viewBox="0 0 640 640"><defs><style>.cls-1{fill:#131a2b;}</style></defs><g id="Option_A_Colors_1" data-name="Option A_Colors 1"><path class="cls-1" d="M455,298.63a6.21,6.21,0,0,1-5-2.58L320.56,116,221,254.47a6.21,6.21,0,0,1-5,2.58H185.05a6.21,6.21,0,1,1,0-12.41h27.73l102.75-142.9a6.21,6.21,0,0,1,5-2.59h0a6.25,6.25,0,0,1,5,2.59L460,288.81a6.19,6.19,0,0,1-5,9.82ZM366,208.12a6.21,6.21,0,0,0-6.21-6.21H280.49a6.21,6.21,0,0,0,0,12.42h79.34A6.21,6.21,0,0,0,366,208.12Zm-22.88-42.74a6.21,6.21,0,0,0-6.2-6.2H303.37a6.21,6.21,0,1,0,0,12.41H337A6.21,6.21,0,0,0,343.16,165.38Zm57.56,85.47a6.21,6.21,0,0,0-6.21-6.21H359.1a6.21,6.21,0,0,0,0,12.41h35.41A6.2,6.2,0,0,0,400.72,250.85Zm-63.65,0a6.21,6.21,0,0,0-6.21-6.21H248.72a6.21,6.21,0,1,0,0,12.41h82.14A6.2,6.2,0,0,0,337.07,250.85Zm84.7,42.79a6.21,6.21,0,0,0-6.2-6.21H261.87a6.21,6.21,0,0,0,0,12.41h153.7A6.21,6.21,0,0,0,421.77,293.64Zm-183,0a6.21,6.21,0,0,0-6.2-6.21h-47.5a6.21,6.21,0,1,0,0,12.41h47.5A6.21,6.21,0,0,0,238.75,293.64Zm222.41,42.65a6.22,6.22,0,0,0-6.22-6.21H287a6.21,6.21,0,1,0,0,12.41h167.9A6.21,6.21,0,0,0,461.16,336.29Zm-200.77,0a6.21,6.21,0,0,0-6.21-6.21H185.05a6.21,6.21,0,1,0,0,12.41h69.13A6.2,6.2,0,0,0,260.39,336.29Zm200.77,42.78a6.21,6.21,0,0,0-6.21-6.21H185.05a6.21,6.21,0,1,0,0,12.41H455A6.2,6.2,0,0,0,461.16,379.07Z"/><path class="cls-1" d="M217.25,506.73v13H178.84V455.85H194v50.88Z"/><path class="cls-1" d="M239.32,517.81a21.63,21.63,0,0,1-8.63-9.06,29.8,29.8,0,0,1,0-25.69,21.63,21.63,0,0,1,8.63-9.06,30.86,30.86,0,0,1,27.89,0,21.42,21.42,0,0,1,8.59,9.06,30.27,30.27,0,0,1,0,25.69,21.42,21.42,0,0,1-8.59,9.06,30.95,30.95,0,0,1-27.89,0Zm21.53-12.43q2.56-3.28,2.57-9.52t-2.57-9.43q-2.58-3.29-7.54-3.29t-7.67,3.29q-2.61,3.29-2.61,9.43t2.61,9.52q2.61,3.28,7.67,3.29T260.85,505.38Z"/><path class="cls-1" d="M338.14,448.43V519.7H323.48v-3.12a20.74,20.74,0,0,1-12.81,4.55,22.41,22.41,0,0,1-11.33-2.82,19.44,19.44,0,0,1-7.75-8.51,35.67,35.67,0,0,1,0-27.8,19.42,19.42,0,0,1,7.75-8.5,22.32,22.32,0,0,1,11.33-2.83,20.8,20.8,0,0,1,12.81,4.55V448.43Zm-14.66,56.28V487.1a16.39,16.39,0,0,0-9.61-3.45q-4.87,0-7.37,3.11t-2.48,9.1c0,4,.83,7.11,2.48,9.18s4.12,3.12,7.37,3.12A16.39,16.39,0,0,0,323.48,504.71Z"/><path class="cls-1" d="M400.14,472v47.51a22.94,22.94,0,0,1-2.57,10.91,18.63,18.63,0,0,1-7.58,7.63,24.48,24.48,0,0,1-12,2.78,95.09,95.09,0,0,1-12.05-.68,44.18,44.18,0,0,1-9.77-2.36V524.33a44.31,44.31,0,0,0,9,2.7,45.38,45.38,0,0,0,8.17.84c4.21,0,7.29-.78,9.22-2.36a8.26,8.26,0,0,0,2.91-6.82V514.9a20.8,20.8,0,0,1-12.81,4.55q-10,0-16-5.94T350.77,495a29,29,0,0,1,2.82-13.4,19.15,19.15,0,0,1,7.75-8.21,23,23,0,0,1,11.33-2.74,20.8,20.8,0,0,1,12.81,4.55V472Zm-14.66,31V487.1a16.38,16.38,0,0,0-9.6-3.45q-4.89,0-7.38,2.9T366,495q0,6.32,2.4,8.89t7.46,2.57A16.4,16.4,0,0,0,385.48,503Z"/><path class="cls-1" d="M432.78,506.73q2.91,2.26,8.55,2.27a24,24,0,0,0,6.28-.8,36.49,36.49,0,0,0,6.86-2.74l3.79,11.29a32.23,32.23,0,0,1-8.68,3.41,47,47,0,0,1-10.27,1,29.53,29.53,0,0,1-14.2-3.16,21.13,21.13,0,0,1-8.88-8.88,31,31,0,0,1,.08-26.92,21.12,21.12,0,0,1,8.42-8.59,24.31,24.31,0,0,1,11.88-2.91q10.53,0,16.51,6.11t6,17.82v5.81H429A10.73,10.73,0,0,0,432.78,506.73Zm-1.1-22.41q-1.89,1.51-2.65,5.22h14.66a7.82,7.82,0,0,0-2.07-5.14,7.14,7.14,0,0,0-5-1.6A7.68,7.68,0,0,0,431.68,484.32Z"/></g></svg>