<?xml version="1.0" encoding="utf-8"?>
<svg viewBox="91.697 105.88 282.593 286.125" xmlns="http://www.w3.org/2000/svg">
  <g id="Option_A_Colors_1" data-name="Option A_Colors 1" transform="matrix(1, 0, 0, 1, -86.874359, -71.060112)">
    <path class="cls-1" d="M455,376.42a6.22,6.22,0,0,1-5-2.59l-129.35-180L221,332.26a6.21,6.21,0,0,1-5,2.58H185.05a6.21,6.21,0,1,1,0-12.41h27.73L315.53,179.52a6.2,6.2,0,0,1,5-2.58h0a6.19,6.19,0,0,1,5,2.59L460,366.59a6.21,6.21,0,0,1-5,9.83ZM366,285.91a6.21,6.21,0,0,0-6.21-6.21H280.49a6.21,6.21,0,0,0,0,12.41h79.34A6.21,6.21,0,0,0,366,285.91Zm-22.88-42.74A6.21,6.21,0,0,0,337,237H303.37a6.21,6.21,0,1,0,0,12.42H337A6.21,6.21,0,0,0,343.16,243.17Zm57.56,85.46a6.21,6.21,0,0,0-6.21-6.2H359.1a6.21,6.21,0,0,0,0,12.41h35.41A6.21,6.21,0,0,0,400.72,328.63Zm-63.65,0a6.21,6.21,0,0,0-6.21-6.2H248.72a6.21,6.21,0,1,0,0,12.41h82.14A6.21,6.21,0,0,0,337.07,328.63Zm84.7,42.79a6.2,6.2,0,0,0-6.2-6.2H261.87a6.21,6.21,0,0,0,0,12.41h153.7A6.21,6.21,0,0,0,421.77,371.42Zm-183,0a6.2,6.2,0,0,0-6.2-6.2h-47.5a6.21,6.21,0,1,0,0,12.41h47.5A6.21,6.21,0,0,0,238.75,371.42Zm222.41,42.65a6.22,6.22,0,0,0-6.22-6.2H287a6.21,6.21,0,1,0,0,12.41h167.9A6.22,6.22,0,0,0,461.16,414.07Zm-200.77,0a6.21,6.21,0,0,0-6.21-6.2H185.05a6.21,6.21,0,1,0,0,12.41h69.13A6.21,6.21,0,0,0,260.39,414.07Zm200.77,42.78a6.21,6.21,0,0,0-6.21-6.2H185.05a6.21,6.21,0,1,0,0,12.41H455A6.21,6.21,0,0,0,461.16,456.85Z" style="fill: rgb(27, 168, 224);"/>
  </g>
</svg>